<svg width="260" height="100" xmlns="http://www.w3.org/2000/svg" preserveAspectRatio="xMidYMid meet">

 <g>
  <title>background</title>
  <rect fill="none" id="canvas_background" height="102" width="262" y="-1" x="-1"/>
 </g>
 <g>
  <title>Layer 1</title>
  <g fill="#7f7a8e" id="layer101">
   <path stroke-width="0" id="svg_1" d="m4183,2753c4,-3 10,-3 14,0c3,4 0,7 -7,7c-7,0 -10,-3 -7,-7z"/>
   <path stroke-width="0" id="svg_2" d="m4315,2730c17,-4 39,-8 50,-8l20,-1l-20,9c-11,5 -33,8 -50,8l-30,0l30,-8z"/>
   <path stroke-width="0" id="svg_3" d="m4390,2719c0,-5 11,-9 25,-9c14,0 25,2 25,4c0,2 -11,6 -25,8c-14,3 -25,1 -25,-3z"/>
   <path stroke-width="0" id="svg_4" d="m4460,2706c0,-2 16,-6 35,-8c19,-2 35,0 35,4c0,4 -16,8 -35,8c-19,0 -35,-2 -35,-4z"/>
   <path stroke-width="0" id="svg_5" d="m4544,2703c9,-9 56,-12 56,-4c0,5 -14,8 -31,9c-17,0 -28,-2 -25,-5z"/>
   <path stroke-width="0" id="svg_6" d="m1951,2373c-1,-9 -16,-11 -51,-7c-52,5 -61,-1 -35,-20c8,-6 17,-22 20,-35c2,-12 10,-30 17,-39c11,-13 10,-14 -8,-4c-19,10 -20,8 -19,-22c1,-17 10,-44 20,-59c9,-15 18,-50 20,-78c1,-28 7,-55 13,-61c14,-14 65,12 68,36c3,22 24,47 24,28c0,-7 5,-12 11,-12c5,0 8,4 5,8c-4,8 28,52 38,52c9,0 0,-30 -11,-34c-39,-15 4,-76 53,-76c29,0 194,26 227,36c24,7 20,11 -50,40c-122,52 71,-2 267,-75c141,-52 200,-71 249,-81c25,-5 55,-12 66,-16c15,-5 17,-4 9,5c-5,6 -43,20 -84,32c-40,11 -92,28 -114,38c-125,55 -336,131 -365,131c-12,0 -115,62 -119,73c-2,4 -11,7 -21,7c-9,0 -27,9 -39,20c-12,11 -28,20 -35,20c-8,0 -20,7 -27,15c-7,8 -9,15 -4,15c5,0 -4,7 -20,15c-15,8 -35,15 -42,15c-8,0 -14,5 -14,10c0,6 -9,10 -19,10c-11,0 -22,6 -24,13c-4,9 -6,9 -6,0zm86,-60c-4,-3 -10,-3 -14,0c-3,4 0,7 7,7c7,0 10,-3 7,-7zm-15,-26c9,-1 14,-6 11,-11c-4,-5 1,-7 10,-3c17,6 39,-1 86,-27l23,-14l-36,-13c-20,-7 -36,-16 -36,-21c0,-4 -10,-12 -21,-19c-17,-9 -20,-8 -13,3c6,11 5,11 -9,-1c-15,-12 -17,-11 -17,10c0,14 -3,19 -8,13c-4,-7 -19,-12 -34,-12c-22,0 -30,8 -48,51c-25,58 -17,70 39,55c20,-5 44,-10 53,-11zm203,-95c-3,-3 -11,0 -18,7c-9,10 -8,11 6,5c10,-3 15,-9 12,-12zm-228,-29c-4,-3 -7,0 -7,7c0,7 3,10 7,7c3,-4 3,-10 0,-14zm-50,0c-4,-3 -10,-3 -14,0c-3,4 0,7 7,7c7,0 10,-3 7,-7zm93,-7c0,-2 -7,-7 -16,-10c-8,-3 -12,-2 -9,4c6,10 25,14 25,6zm170,-10c0,-11 -19,-15 -25,-6c-3,5 1,10 9,10c9,0 16,-2 16,-4zm-250,-31c0,-14 -4,-25 -10,-25c-5,0 -10,11 -10,25c0,14 5,25 10,25c6,0 10,-11 10,-25z"/>
   <path stroke-width="0" id="svg_7" d="m1734,2238c-5,-18 -14,-32 -21,-31c-6,2 -28,-4 -47,-12c-26,-11 -36,-21 -36,-38c0,-12 -9,-39 -20,-60c-11,-20 -20,-43 -20,-51c0,-7 -14,-24 -30,-38c-17,-14 -33,-36 -36,-49c-13,-53 -13,-94 0,-114c18,-28 28,-112 15,-121c-6,-3 -27,10 -48,30l-37,36l-23,-23l-23,-22l12,25c7,14 24,39 36,56c33,42 54,108 60,180c5,59 5,60 -19,60c-28,0 -20,10 -175,-202c-65,-88 -128,-181 -140,-206c-26,-56 -54,-197 -84,-418c-27,-203 -32,-603 -9,-682c7,-27 16,-48 20,-48c3,0 6,57 7,128c0,136 19,246 59,337c12,27 28,76 35,108c7,31 18,57 24,57c6,0 22,23 35,50c14,28 28,50 32,50c8,0 16,-89 33,-370c10,-151 18,-226 27,-239c8,-10 41,-50 74,-90l59,-71l22,76c12,41 25,78 28,81c4,4 4,-47 0,-113c-4,-85 -3,-115 5,-104c6,8 11,24 11,35c0,28 35,117 42,109c4,-3 4,3 1,14c-2,11 -1,22 4,25c5,3 22,-49 38,-116c24,-99 31,-115 33,-85c2,21 7,38 12,38c17,0 28,34 45,135c9,55 25,125 35,155c10,30 24,83 30,117c12,57 11,68 -9,120c-24,66 -91,354 -91,392c-1,46 34,281 41,281c11,0 26,-76 54,-275c38,-273 61,-402 85,-465c11,-30 20,-75 20,-100c0,-52 34,-200 52,-230c33,-52 37,-1 7,80c-11,30 -24,71 -29,90c-10,42 -40,536 -40,659l1,86l27,-35c64,-82 231,-227 320,-275c20,-12 55,-32 77,-46c22,-14 74,-38 115,-54c41,-16 79,-32 84,-37c6,-4 20,-8 33,-8c13,0 33,-10 45,-22c12,-12 38,-27 57,-34c20,-7 35,-18 33,-24c-1,-7 3,-10 10,-8c23,8 18,24 -12,42c-35,20 -143,144 -197,225c-45,67 -157,291 -149,298c8,9 65,-21 59,-31c-3,-5 -1,-6 5,-2c13,8 75,-28 64,-38c-4,-4 -2,-6 3,-4c14,4 75,-23 75,-34c0,-5 5,-6 10,-3c6,3 10,1 10,-6c0,-7 3,-9 7,-6c3,4 13,1 22,-6c14,-11 15,-10 1,8c-19,25 -33,36 -98,81c-29,20 -58,46 -64,57c-5,12 -32,38 -59,57c-27,19 -49,39 -49,43c0,5 -14,22 -30,39c-17,17 -29,35 -27,42c3,6 -2,18 -9,26c-7,9 -17,40 -22,71c-6,39 -21,74 -52,119c-57,86 -129,170 -144,170c-7,0 -23,-11 -36,-25c-25,-27 -73,-34 -86,-13c-4,7 -9,34 -10,61c-2,46 -6,53 -61,104c-37,34 -64,52 -76,49c-9,-2 -15,0 -11,5c3,5 1,9 -3,9c-5,0 -13,-15 -19,-32zm-437,-950c-3,-8 -6,-5 -6,6c-1,11 2,17 5,13c3,-3 4,-12 1,-19zm165,-13c2,-19 1,-35 -2,-35c-14,0 -33,-58 -37,-110c-2,-30 3,-104 12,-165c23,-165 32,-276 22,-282c-12,-7 -12,-8 -41,103c-47,181 -43,350 11,485c19,48 30,49 35,4zm18,-617c0,-19 -2,-20 -10,-8c-13,19 -13,30 0,30c6,0 10,-10 10,-22z"/>
   <path stroke-width="0" id="svg_8" d="m2207,2249c7,-7 15,-10 18,-7c3,3 -2,9 -12,12c-14,6 -15,5 -6,-5z"/>
   <path stroke-width="0" id="svg_9" d="m1556,2135c4,-8 8,-15 10,-15c2,0 4,7 4,15c0,8 -4,15 -10,15c-5,0 -7,-7 -4,-15z"/>
   <path stroke-width="0" id="svg_10" d="m2794,1578c-4,-7 -3,-8 4,-4c12,7 16,16 8,16c-3,0 -8,-5 -12,-12z"/>
   <path stroke-width="0" id="svg_11" d="m1090,1430c0,-7 3,-10 7,-7c3,4 3,10 0,14c-4,3 -7,0 -7,-7z"/>
   <path stroke-width="0" id="svg_12" d="m1721,1348c-1,-15 4,-30 9,-33c12,-7 12,12 0,40c-8,18 -9,17 -9,-7z"/>
   <path stroke-width="0" id="svg_13" d="m1050,1343c0,-5 5,-15 10,-23c8,-12 10,-11 10,8c0,12 -4,22 -10,22c-5,0 -10,-3 -10,-7z"/>
   <path stroke-width="0" id="svg_14" d="m1812,1095c0,-16 2,-22 5,-12c2,9 2,23 0,30c-3,6 -5,-1 -5,-18z"/>
   <path stroke-width="0" id="svg_15" d="m1781,1044c0,-11 3,-14 6,-6c3,7 2,16 -1,19c-3,4 -6,-2 -5,-13z"/>
   <path stroke-width="0" id="svg_16" d="m1050,1030c0,-7 3,-10 7,-7c3,4 3,10 0,14c-4,3 -7,0 -7,-7z"/>
   <path stroke-width="0" id="svg_17" d="m2663,883c4,-3 10,-3 14,0c3,4 0,7 -7,7c-7,0 -10,-3 -7,-7z"/>
   <path stroke-width="0" id="svg_18" d="m2577,833c-12,-12 -7,-22 8,-17c8,4 15,10 15,15c0,11 -14,12 -23,2z"/>
   <path stroke-width="0" id="svg_19" d="m1050,790c0,-7 3,-10 7,-7c3,4 3,10 0,14c-4,3 -7,0 -7,-7z"/>
   <path stroke-width="0" id="svg_20" d="m1051,744c0,-11 3,-14 6,-6c3,7 2,16 -1,19c-3,4 -6,-2 -5,-13z"/>
   <path stroke-width="0" id="svg_21" d="m3252,709c2,-7 10,-15 17,-17c8,-3 12,1 9,9c-2,7 -10,15 -17,17c-8,3 -12,-1 -9,-9z"/>
   <path stroke-width="0" id="svg_22" d="m3290,671c0,-5 5,-13 10,-16c6,-3 10,-2 10,4c0,5 -4,13 -10,16c-5,3 -10,2 -10,-4z"/>
   <path stroke-width="0" id="svg_23" d="m3227,625c-12,-72 -8,-132 9,-139c13,-5 15,4 13,62c-1,37 -5,78 -9,92c-6,22 -7,21 -13,-15z"/>
   <path stroke-width="0" id="svg_24" d="m2855,570c-3,-5 -1,-10 4,-10c6,0 11,5 11,10c0,6 -2,10 -4,10c-3,0 -8,-4 -11,-10z"/>
   <path stroke-width="0" id="svg_25" d="m2760,520c0,-5 5,-10 11,-10c5,0 7,5 4,10c-3,6 -8,10 -11,10c-2,0 -4,-4 -4,-10z"/>
   <path stroke-width="0" id="svg_26" d="m3910,29c0,-5 5,-7 10,-4c6,3 10,8 10,11c0,2 -4,4 -10,4c-5,0 -10,-5 -10,-11z"/>
   <path stroke-width="0" id="svg_27" d="m3387,9c7,-7 15,-10 18,-7c3,3 -2,9 -12,12c-14,6 -15,5 -6,-5z"/>
  </g>
  <g fill="#d6b581" id="layer102">
   <path stroke-width="0" id="svg_28" d="m3501,2649c-21,-17 -22,-22 -10,-30c19,-12 32,-11 24,1c-4,6 8,10 29,10c25,0 36,4 36,15c0,8 -3,15 -7,16c-5,0 -17,2 -28,4c-11,2 -31,-5 -44,-16z"/>
   <path stroke-width="0" id="svg_29" d="m1650,2380c-23,-14 19,-19 46,-5l27,14l-31,-1c-17,-1 -36,-4 -42,-8z"/>
   <path stroke-width="0" id="svg_30" d="m1734,2238c-5,-18 -14,-32 -21,-31c-6,2 -28,-4 -47,-12c-26,-11 -36,-21 -36,-38c0,-12 -9,-39 -20,-60c-11,-20 -20,-43 -20,-51c0,-7 -14,-24 -30,-38c-17,-14 -33,-36 -36,-49c-13,-53 -13,-94 0,-114c18,-28 28,-112 15,-121c-6,-3 -27,10 -48,30l-37,36l-23,-23l-23,-22l12,25c7,14 24,39 36,56c33,42 54,108 60,180c5,59 5,60 -19,60c-28,0 -20,10 -175,-202c-65,-88 -128,-181 -140,-206c-26,-56 -54,-197 -84,-418c-27,-203 -32,-603 -9,-682c7,-27 16,-48 20,-48c3,0 6,57 7,128c0,136 19,246 59,337c12,27 28,76 35,108c7,31 18,57 24,57c6,0 22,23 35,50c14,28 28,50 32,50c8,0 16,-89 33,-370c10,-151 18,-226 27,-239c8,-10 41,-50 74,-90l59,-71l22,76c12,41 25,78 28,81c4,4 4,-47 0,-113c-4,-85 -3,-115 5,-104c6,8 11,24 11,34c0,20 39,136 49,148c4,4 20,-47 36,-115c24,-99 31,-115 33,-85c2,21 7,38 12,38c17,0 28,34 45,135c9,55 25,125 35,155c10,30 24,83 30,117c12,57 11,68 -9,120c-24,66 -91,354 -91,392c-1,46 34,281 41,281c11,0 26,-76 54,-275c38,-273 61,-402 85,-465c11,-30 20,-75 20,-100c0,-52 34,-200 52,-230c33,-52 37,-1 7,80c-11,30 -24,71 -29,90c-10,42 -40,536 -40,659l1,86l27,-35c64,-82 231,-227 320,-275c20,-12 55,-32 77,-46c22,-14 74,-38 115,-54c41,-16 79,-32 84,-37c6,-4 20,-8 33,-8c13,0 33,-10 45,-22c12,-12 38,-27 57,-34c20,-7 35,-18 33,-24c-1,-7 3,-10 10,-8c23,8 18,24 -12,42c-35,20 -143,144 -197,225c-45,67 -157,291 -149,298c8,9 65,-21 59,-31c-3,-5 -1,-6 5,-2c13,8 75,-28 64,-38c-4,-4 -2,-6 3,-4c14,4 75,-23 75,-34c0,-5 5,-6 10,-3c6,3 10,1 10,-6c0,-7 3,-9 7,-6c3,4 13,1 22,-6c14,-11 15,-10 1,8c-19,25 -33,36 -98,81c-29,20 -58,46 -64,57c-5,12 -32,38 -59,57c-27,19 -49,39 -49,43c0,5 -14,22 -30,39c-17,17 -29,35 -27,42c3,6 -2,18 -9,26c-7,9 -17,40 -22,71c-6,39 -21,74 -52,119c-57,86 -129,170 -144,170c-7,0 -23,-11 -36,-25c-25,-27 -73,-34 -86,-13c-4,7 -9,34 -10,61c-2,46 -6,53 -61,104c-37,34 -64,52 -76,49c-9,-2 -15,0 -11,5c3,5 1,9 -3,9c-5,0 -13,-15 -19,-32zm-437,-950c-3,-8 -6,-5 -6,6c-1,11 2,17 5,13c3,-3 4,-12 1,-19zm165,-13c2,-19 1,-35 -2,-35c-14,0 -33,-58 -37,-110c-2,-30 3,-104 12,-165c23,-165 32,-276 22,-282c-12,-7 -12,-8 -41,103c-47,181 -43,350 11,485c19,48 30,49 35,4zm18,-617c0,-19 -2,-20 -10,-8c-13,19 -13,30 0,30c6,0 10,-10 10,-22z"/>
   <path stroke-width="0" id="svg_31" d="m2780,1885c0,-8 4,-15 9,-15c5,0 14,7 21,15c10,13 9,15 -9,15c-12,0 -21,-6 -21,-15z"/>
   <path stroke-width="0" id="svg_32" d="m2610,1861c0,-12 6,-21 16,-21c9,0 14,7 12,17c-5,25 -28,28 -28,4z"/>
   <path stroke-width="0" id="svg_33" d="m2389,1651c19,-12 23,-41 5,-34c-8,3 -14,0 -14,-7c0,-8 12,-10 39,-5c30,5 40,3 44,-9c4,-9 14,-16 22,-16c9,0 13,5 10,10c-9,15 16,12 80,-10c32,-11 68,-20 80,-20c29,0 115,30 115,40c0,5 14,11 30,15c17,4 30,10 30,15c0,4 -33,1 -72,-6c-113,-22 -211,-18 -293,11c-72,26 -101,32 -76,16zm48,-18c-4,-3 -10,-3 -14,0c-3,4 0,7 7,7c7,0 10,-3 7,-7z"/>
   <path stroke-width="0" id="svg_34" d="m4520,160c0,-7 3,-10 7,-7c3,4 3,10 0,14c-4,3 -7,0 -7,-7z"/>
  </g>
  <g fill="#ddcc90" id="layer103">
   <path stroke-width="0" id="svg_35" d="m3768,2723c7,-3 16,-2 19,1c4,3 -2,6 -13,5c-11,0 -14,-3 -6,-6z"/>
   <path stroke-width="0" id="svg_36" d="m4404,2668c-4,-7 -3,-8 4,-4c12,7 16,16 8,16c-3,0 -8,-5 -12,-12z"/>
   <path stroke-width="0" id="svg_37" d="m3508,2652c-13,-8 -25,-17 -28,-19c-5,-5 21,-23 33,-23c5,0 5,5 2,10c-4,6 8,10 29,10c25,0 36,4 36,15c0,8 -3,15 -7,16c-5,0 -16,2 -25,4c-9,2 -27,-4 -40,-13z"/>
   <path stroke-width="0" id="svg_38" d="m3148,2613c7,-3 16,-2 19,1c4,3 -2,6 -13,5c-11,0 -14,-3 -6,-6z"/>
   <path stroke-width="0" id="svg_39" d="m2406,2421c-4,-7 -5,-15 -2,-18c9,-9 19,4 14,18c-4,11 -6,11 -12,0z"/>
   <path stroke-width="0" id="svg_40" d="m1663,2363c4,-3 10,-3 14,0c3,4 0,7 -7,7c-7,0 -10,-3 -7,-7z"/>
   <path stroke-width="0" id="svg_41" d="m4235,2286c-14,-10 -15,-15 -5,-21c9,-5 15,-4 18,3c2,7 8,10 13,6c5,-3 9,-1 9,5c0,17 -16,21 -35,7z"/>
   <path stroke-width="0" id="svg_42" d="m1735,2238c-7,-23 -15,-32 -27,-30c-21,3 -21,0 -7,-50c11,-40 29,-51 29,-19c0,24 16,36 23,19c4,-10 6,-9 6,1c1,11 4,11 16,1c8,-7 12,-17 8,-23c-4,-6 -1,-7 7,-2c7,4 16,2 22,-6c7,-10 8,-6 4,14c-4,15 -4,27 0,27c11,0 31,-26 39,-49c6,-21 8,-22 26,-5c10,9 19,21 19,26c0,20 -115,119 -133,114c-9,-2 -15,0 -11,5c3,5 1,9 -3,9c-5,0 -13,-15 -18,-32zm2,-55c-4,-3 -7,0 -7,7c0,7 3,10 7,7c3,-4 3,-10 0,-14z"/>
   <path stroke-width="0" id="svg_43" d="m1716,2058c9,-72 16,-75 12,-5c-1,31 -6,57 -11,57c-4,0 -5,-24 -1,-52z"/>
   <path stroke-width="0" id="svg_44" d="m1887,2103c-6,-10 -3,-42 7,-71c6,-17 13,-21 33,-18c14,3 28,8 32,12c3,4 -6,4 -21,2c-19,-4 -28,-1 -28,8c0,8 -4,14 -8,14c-5,0 -7,14 -4,30c4,28 -1,39 -11,23z"/>
   <path stroke-width="0" id="svg_45" d="m1921,1959c-1,-14 2,-29 6,-33c4,-3 8,-25 9,-49c4,-72 21,-140 38,-152c9,-7 16,-19 16,-27c0,-24 21,-38 41,-28c14,8 22,4 40,-21c17,-24 27,-29 45,-25c17,5 24,1 29,-14c4,-11 11,-18 16,-15c5,3 6,-1 3,-9c-5,-12 0,-16 17,-16c19,0 21,-2 9,-10c-13,-8 -13,-11 -1,-22c12,-11 13,-10 7,2c-4,8 0,6 8,-4c9,-11 16,-28 16,-38c0,-10 4,-18 10,-18c5,0 7,-7 4,-15c-9,-22 -19,-18 -32,13l-12,27l4,-28c3,-22 0,-26 -14,-22c-11,3 -17,0 -17,-10c0,-8 4,-15 9,-15c4,0 8,-9 8,-20c0,-11 3,-20 8,-20c8,0 42,-73 42,-90c0,-6 3,-10 8,-10c4,-1 30,-22 57,-47c28,-25 37,-37 20,-26c-32,21 -65,35 -65,28c0,-3 25,-21 55,-41c30,-20 55,-39 55,-41c0,-2 -18,6 -41,17c-23,12 -43,19 -46,16c-3,-3 1,-8 10,-12c12,-4 15,-13 11,-29c-7,-27 22,-45 136,-90c41,-16 79,-32 84,-37c6,-4 20,-8 33,-8c13,0 33,-10 45,-22c12,-12 38,-27 57,-34c20,-7 35,-18 33,-24c-1,-7 3,-10 10,-8c23,8 18,24 -12,42c-35,20 -143,144 -197,224c-64,96 -166,302 -150,302c23,0 67,-26 59,-35c-4,-5 -2,-5 5,-1c14,8 76,-28 65,-38c-4,-4 -2,-6 3,-4c14,4 75,-23 75,-34c0,-5 4,-7 9,-4c5,4 11,1 13,-6c3,-7 7,-5 11,6c4,9 3,15 -2,12c-5,-3 -11,0 -14,7c-3,8 -31,31 -62,51c-31,21 -61,48 -66,60c-6,12 -20,28 -31,35c-16,10 -19,10 -12,-1c5,-8 0,-7 -12,3c-10,9 -35,23 -55,32c-37,17 -49,33 -49,67c0,10 -7,25 -15,33c-7,8 -17,28 -21,43c-4,16 -12,32 -17,36c-6,3 -11,15 -12,25c0,10 -4,24 -8,30c-8,13 -37,6 -37,-9c0,-5 5,-6 12,-2c7,4 8,3 4,-5c-4,-6 -11,-9 -16,-6c-5,3 -11,1 -15,-5c-11,-17 -31,-11 -44,13c-6,12 -9,14 -6,4c3,-10 1,-15 -5,-12c-6,3 -10,13 -10,21c0,8 -5,14 -10,14c-6,0 -16,11 -22,25c-8,19 -14,22 -20,13c-4,-8 -8,-9 -8,-2c0,12 -67,84 -77,83c-4,0 -10,8 -14,18c-6,15 -8,13 -8,-8zm83,-175c10,-25 -1,-29 -14,-5c-6,12 -7,21 -1,21c5,0 12,-7 15,-16zm31,-24c3,-5 4,-10 1,-10c-3,0 -8,5 -11,10c-3,6 -4,10 -1,10c3,0 8,-4 11,-10zm5,-50c0,-5 -2,-10 -4,-10c-3,0 -8,5 -11,10c-3,6 -1,10 4,10c6,0 11,-4 11,-10zm57,-67c-4,-3 -10,-3 -14,0c-3,4 0,7 7,7c7,0 10,-3 7,-7zm253,-118c16,-9 19,-14 9,-15c-8,0 -24,7 -35,15c-24,18 -7,19 26,0zm-103,-122c-4,-3 -7,0 -7,7c0,7 3,10 7,7c3,-4 3,-10 0,-14z"/>
   <path stroke-width="0" id="svg_46" d="m2790,1890c0,-5 4,-10 9,-10c6,0 13,5 16,10c3,6 -1,10 -9,10c-9,0 -16,-4 -16,-10z"/>
   <path stroke-width="0" id="svg_47" d="m2610,1855c0,-8 5,-15 10,-15c6,0 10,7 10,15c0,8 -4,15 -10,15c-5,0 -10,-7 -10,-15z"/>
   <path stroke-width="0" id="svg_48" d="m1856,1813c-3,-26 -1,-109 5,-183c5,-74 10,-142 10,-150c0,-8 3,-26 7,-40c11,-45 19,110 10,195c-5,44 -11,111 -13,149c-3,38 -6,71 -8,73c-3,2 -7,-18 -11,-44z"/>
   <path stroke-width="0" id="svg_49" d="m2794,1836c-11,-29 1,-51 26,-51c31,0 40,33 14,52c-23,17 -33,16 -40,-1z"/>
   <path stroke-width="0" id="svg_50" d="m1712,1798c-1,-25 -5,-55 -8,-65c-5,-17 -5,-17 6,0c6,9 9,39 7,65l-3,47l-2,-47z"/>
   <path stroke-width="0" id="svg_51" d="m2932,1808c-15,-15 -15,-30 -1,-61c8,-18 17,-23 32,-19c15,4 18,2 12,-9c-7,-11 -6,-12 6,-2c8,7 14,29 14,55c0,38 -3,43 -25,46c-14,2 -31,-3 -38,-10z"/>
   <path stroke-width="0" id="svg_52" d="m1940,1690c0,-7 3,-10 7,-7c3,4 3,10 0,14c-4,3 -7,0 -7,-7z"/>
   <path stroke-width="0" id="svg_53" d="m1703,1640c0,-25 2,-35 4,-22c2,12 2,32 0,45c-2,12 -4,2 -4,-23z"/>
   <path stroke-width="0" id="svg_54" d="m2545,1594c72,-32 121,-40 155,-25c24,11 24,11 -6,6c-17,-3 -42,0 -59,9l-28,15l39,4c21,2 10,4 -26,3c-36,0 -81,3 -100,7c-26,6 -19,0 25,-19z"/>
   <path stroke-width="0" id="svg_55" d="m1153,1542c-7,-29 -13,-60 -13,-70c0,-15 1,-15 16,-1c11,11 14,31 12,70l-3,54l-12,-53z"/>
   <path stroke-width="0" id="svg_56" d="m1689,1533c-1,-16 -2,-32 -3,-38c-1,-5 -6,-39 -11,-75c-9,-66 -11,-78 -14,-82c-4,-6 -12,-117 -11,-170c0,-32 -4,-58 -9,-58c-4,0 -6,11 -3,25c2,15 0,25 -7,25c-6,0 -12,-10 -12,-22c-1,-13 -3,-16 -5,-8c-3,8 2,38 9,67c8,29 10,50 5,47c-13,-8 -9,61 5,75c10,10 9,11 -5,6c-10,-4 -18,-8 -18,-9c0,0 -3,-55 -6,-121c-7,-170 -11,-187 -35,-180c-12,4 -19,2 -20,-7c0,-7 -4,-4 -9,7c-10,22 -4,-41 10,-109c5,-21 6,-45 3,-54c-4,-8 -7,-27 -9,-41c-1,-14 -2,-30 -3,-35c-1,-13 -16,2 -16,17c-2,32 -18,87 -26,87c-11,0 -9,19 -15,-155c-4,-149 6,-181 21,-62c3,31 11,57 16,57c12,0 12,0 -9,-103l-18,-88l-49,95c-27,53 -61,110 -77,128l-27,31l9,-32c5,-18 13,-38 19,-44c5,-7 37,-64 70,-127c33,-63 61,-106 62,-95c0,11 11,56 24,100l24,80l-5,-135c-4,-96 -2,-131 5,-120c6,8 11,24 11,35c0,11 9,44 20,73c11,29 18,57 15,62c-3,4 1,10 8,13c9,3 21,-30 42,-117c22,-90 31,-113 33,-88c2,18 12,42 22,52c10,10 21,40 25,67c11,81 26,156 40,203c8,25 21,77 29,116c15,72 15,72 -14,155c-16,46 -30,93 -30,104c0,17 -2,17 -10,5c-5,-8 -7,-23 -4,-34c4,-10 2,-16 -3,-13c-8,5 -10,-25 -3,-43c1,-3 1,-9 0,-15c-1,-5 -2,-24 -2,-42c1,-18 -3,-35 -8,-38c-5,-3 -9,3 -9,12c0,10 -5,61 -11,113c-6,52 -9,111 -7,130c2,19 2,27 0,18c-2,-10 -8,-18 -13,-18c-5,0 -7,6 -5,13c2,6 6,68 9,137c3,69 8,153 12,188c4,34 4,62 0,62c-3,0 -7,-12 -7,-27zm-18,-464c-7,-27 -9,-29 -10,-11c-1,15 -5,21 -13,16c-7,-4 -8,-3 -4,5c4,6 12,9 17,6c5,-4 10,11 10,32c2,28 3,31 6,12c2,-15 0,-42 -6,-60zm-34,-106c-4,-3 -7,0 -7,7c0,7 3,10 7,7c3,-4 3,-10 0,-14zm-50,-35c-3,-7 -5,-2 -5,12c0,14 2,19 5,13c2,-7 2,-19 0,-25zm80,-74c-9,-143 -24,-86 -18,69c1,34 4,39 12,24c6,-10 8,-50 6,-93zm-140,-116c-3,-8 -6,-5 -6,6c-1,11 2,17 5,13c3,-3 4,-12 1,-19zm140,-35c-4,-3 -7,0 -7,7c0,7 3,10 7,7c3,-4 3,-10 0,-14zm0,-70c-3,-10 -5,-2 -5,17c0,19 2,27 5,18c2,-10 2,-26 0,-35zm-60,-10c-4,-3 -7,0 -7,7c0,7 3,10 7,7c3,-4 3,-10 0,-14z"/>
   <path stroke-width="0" id="svg_57" d="m1780,1470c0,-7 3,-10 7,-7c3,4 3,10 0,14c-4,3 -7,0 -7,-7z"/>
   <path stroke-width="0" id="svg_58" d="m1905,1470c3,-5 8,-10 11,-10c3,0 2,5 -1,10c-3,6 -8,10 -11,10c-3,0 -2,-4 1,-10z"/>
   <path stroke-width="0" id="svg_59" d="m1810,1428c0,-25 -3,-29 -10,-18c-8,12 -10,11 -10,-7c0,-12 5,-25 10,-28c6,-4 8,-11 5,-16c-7,-10 29,-271 50,-363c13,-61 42,-146 52,-156c2,-3 2,31 -1,75c-7,96 -16,298 -18,415c-1,47 -4,75 -6,63c-2,-13 -7,-23 -12,-23c-5,0 -7,-7 -4,-15c4,-8 1,-15 -5,-15c-6,0 -12,6 -12,13c-2,15 -3,23 -13,70c-10,46 -26,49 -26,5zm57,-170c-2,-13 -4,-3 -4,22c0,25 2,35 4,23c2,-13 2,-33 0,-45zm0,-75c-4,-3 -7,0 -7,7c0,7 3,10 7,7c3,-4 3,-10 0,-14z"/>
   <path stroke-width="0" id="svg_60" d="m1127,1409c-3,-24 -15,-114 -26,-199c-27,-200 -36,-417 -23,-551c8,-89 26,-161 36,-147c1,1 0,37 -4,78c-4,46 -1,110 8,165c7,50 14,106 15,126c1,21 5,35 10,32c4,-2 7,4 8,14c0,10 4,42 8,71c4,29 4,55 -1,58c-4,3 -8,-1 -8,-8c0,-8 -6,-22 -13,-32c-12,-16 -13,-12 -11,29c2,27 0,53 -4,59c-14,23 -3,223 16,276c10,29 11,44 3,58c-5,10 -10,0 -14,-29z"/>
   <path stroke-width="0" id="svg_61" d="m2585,1370c3,-5 8,-10 11,-10c3,0 2,5 -1,10c-3,6 -8,10 -11,10c-3,0 -2,-4 1,-10z"/>
   <path stroke-width="0" id="svg_62" d="m2175,1350c3,-5 8,-10 11,-10c2,0 4,5 4,10c0,6 -5,10 -11,10c-5,0 -7,-4 -4,-10z"/>
   <path stroke-width="0" id="svg_63" d="m1240,1330c0,-7 3,-10 7,-7c3,4 3,10 0,14c-4,3 -7,0 -7,-7z"/>
   <path stroke-width="0" id="svg_64" d="m2205,1310c3,-5 8,-10 11,-10c3,0 2,5 -1,10c-3,6 -8,10 -11,10c-3,0 -2,-4 1,-10z"/>
   <path stroke-width="0" id="svg_65" d="m1211,1254c-7,-20 -10,-38 -7,-41c3,-4 7,-3 7,0c3,14 5,23 13,45c13,38 1,34 -13,-4z"/>
   <path stroke-width="0" id="svg_66" d="m1702,1240c0,-19 2,-27 5,-17c2,9 2,25 0,35c-3,9 -5,1 -5,-18z"/>
   <path stroke-width="0" id="svg_67" d="m1142,1225c0,-16 2,-22 5,-12c2,9 2,23 0,30c-3,6 -5,-1 -5,-18z"/>
   <path stroke-width="0" id="svg_68" d="m1186,1174c-10,-38 0,-41 12,-5c6,17 7,31 3,31c-5,0 -12,-12 -15,-26z"/>
   <path stroke-width="0" id="svg_69" d="m1631,1184c0,-11 3,-14 6,-6c3,7 2,16 -1,19c-3,4 -6,-2 -5,-13z"/>
   <path stroke-width="0" id="svg_70" d="m1721,1174c0,-11 3,-14 6,-6c3,7 2,16 -1,19c-3,4 -6,-2 -5,-13z"/>
   <path stroke-width="0" id="svg_71" d="m1226,1155c-3,-8 -1,-15 4,-15c6,0 10,7 10,15c0,8 -2,15 -4,15c-2,0 -6,-7 -10,-15z"/>
   <path stroke-width="0" id="svg_72" d="m1726,1142c-2,-4 -1,-14 5,-22c7,-12 9,-10 9,8c0,23 -5,28 -14,14z"/>
   <path stroke-width="0" id="svg_73" d="m1210,1110c0,-7 3,-10 7,-7c3,4 3,10 0,14c-4,3 -7,0 -7,-7z"/>
   <path stroke-width="0" id="svg_74" d="m1581,1062c-1,-13 -5,-20 -11,-17c-5,3 -10,1 -10,-4c0,-16 20,-13 26,4c3,8 4,20 1,27c-3,7 -6,3 -6,-10z"/>
   <path stroke-width="0" id="svg_75" d="m1191,1043c-1,-6 -4,-20 -7,-30c-5,-17 -5,-17 6,0c6,10 9,23 6,30c-3,9 -5,9 -5,0z"/>
   <path stroke-width="0" id="svg_76" d="m1347,900c-3,-11 -1,-20 4,-20c5,0 9,9 9,20c0,11 -2,20 -4,20c-2,0 -6,-9 -9,-20z"/>
   <path stroke-width="0" id="svg_77" d="m1346,803c-6,-14 -5,-15 5,-6c7,7 10,15 7,18c-3,3 -9,-2 -12,-12z"/>
   <path stroke-width="0" id="svg_78" d="m1905,770c1,-28 8,-57 15,-65c7,-8 10,-22 6,-30c-3,-8 -1,-15 3,-15c5,0 7,-9 4,-20c-3,-12 0,-20 7,-20c7,0 10,-7 6,-15c-6,-18 13,-65 27,-65c15,0 0,70 -28,134c-14,33 -25,75 -25,101c0,25 -4,45 -9,45c-6,0 -8,-23 -6,-50z"/>
   <path stroke-width="0" id="svg_79" d="m1400,585c13,-14 26,-25 28,-25c3,0 -5,11 -18,25c-13,14 -26,25 -28,25c-3,0 5,-11 18,-25z"/>
  </g>
  <text transform="matrix(1.5612, 0, 0, 1.52823, -104.885, -152.878)" xml:space="preserve" text-anchor="start" font-family="'Times New Roman', Times, serif" font-size="150" id="svg_82" y="349.098336" x="145.372487" stroke-width="3" stroke="#619E73" fill="#8CD79F">Strelitzia</text>
  <text transform="matrix(1.55783, 0, 0, 1.63104, -42.7317, -5.62856)" opacity="0.75" xml:space="preserve" text-anchor="start" font-family="'Times New Roman', Times, serif" font-size="150" id="svg_80" y="193.293539" x="51.838305" stroke-width="3" stroke="#CFCA6D" fill="#FFF093">Yellow</text>
  <text transform="matrix(1.12017, 0, 0, 0.397772, -6.24859, -65.7482)" xml:space="preserve" text-anchor="start" font-family="'Times New Roman', Times, serif" font-size="150" id="svg_83" y="24.475021" x="52.000058" stroke-width="3" stroke="#97944B" fill="#8CD79F"/>
  <text font-weight="bold" xml:space="preserve" text-anchor="start" font-family="'Palatino Linotype', 'Book Antiqua', Palatino, serif" font-size="48" id="svg_85" y="74.474985" x="46.000062" stroke-width="2" stroke="#d89817" fill="#ea7507">Streritzia</text>
  <text font-weight="bold" xml:space="preserve" text-anchor="start" font-family="'Palatino Linotype', 'Book Antiqua', Palatino, serif" font-size="48" id="svg_84" y="55.474999" x="14.000086" stroke-width="2" stroke="#e4e5b0" fill="#eaea09">Yellow</text>
 </g>
</svg>